<svg version="1.2" xmlns="http://www.w3.org/2000/svg" viewBox="0 0 20 24" width="20" height="24"><defs><clipPath clipPathUnits="userSpaceOnUse" id="cp1"><path d="m-255-1980h430v2044h-430z"/></clipPath></defs><style>.a{fill:#cdcdcd}</style><g clip-path="url(#cp1)"><path fill-rule="evenodd" class="a" d="m13.8 1c0.5 0.4 0.8 1 0.9 1.7h2q0.5 0 1 0.2 0.5 0.2 0.9 0.5 0.3 0.4 0.5 0.9 0.2 0.5 0.2 1v15.7q0 0.6-0.2 1-0.2 0.5-0.5 0.9-0.4 0.4-0.9 0.6-0.5 0.2-1 0.2h-13.4c-0.7 0-1.4-0.3-1.9-0.8-0.5-0.5-0.7-1.2-0.7-1.9v-15.7c0-0.7 0.2-1.4 0.7-1.9 0.5-0.5 1.2-0.7 1.9-0.7h2c0.1-0.7 0.4-1.3 0.9-1.7 0.5-0.4 1.1-0.7 1.8-0.7h4c0.7 0 1.3 0.3 1.8 0.7zm-6.5 1.3q-0.2 0.3-0.2 0.7 0 0.3 0.2 0.6 0.3 0.2 0.7 0.2h4q0.4 0 0.7-0.2 0.2-0.3 0.2-0.6 0-0.4-0.2-0.7-0.3-0.2-0.7-0.2h-4q-0.4 0-0.7 0.2zm3.5 8.3q0.3 0.2 0.7 0.2h4q0.4 0 0.7-0.2 0.2-0.3 0.2-0.6 0-0.4-0.2-0.7-0.3-0.2-0.7-0.2h-4q-0.4 0-0.7 0.2-0.2 0.3-0.2 0.7 0 0.3 0.2 0.6zm0 5.2q-0.2 0.2-0.2 0.6 0 0.3 0.2 0.6 0.3 0.2 0.7 0.2h4q0.4 0 0.7-0.2 0.2-0.3 0.2-0.6 0-0.4-0.2-0.6-0.3-0.3-0.7-0.3h-4q-0.4 0-0.7 0.3zm-2-6.7q0.1-0.1 0.1-0.3 0-0.2-0.1-0.4-0.1-0.1-0.2-0.2-0.1-0.2-0.3-0.2-0.2-0.1-0.3-0.1-0.2 0-0.4 0.1-0.1 0-0.3 0.2l-1.7 1.7-0.5-0.6q-0.1-0.1-0.3-0.2-0.2 0-0.3 0-0.2 0-0.4 0-0.2 0.1-0.3 0.2-0.1 0.1-0.2 0.3 0 0.2 0 0.4 0 0.1 0 0.3 0.1 0.2 0.2 0.3l1.2 1.1q0.3 0.3 0.6 0.3 0.4 0 0.6-0.3l2.4-2.3q0.1-0.1 0.2-0.3zm-0.8 5.2q-0.4 0-0.7 0.3l-1.7 1.7-0.5-0.5q-0.1-0.2-0.3-0.2-0.2-0.1-0.3-0.1-0.2 0-0.4 0-0.2 0.1-0.3 0.2-0.1 0.2-0.2 0.3 0 0.2 0 0.4 0 0.1 0 0.3 0.1 0.2 0.2 0.3l1.2 1.2q0.3 0.2 0.6 0.2 0.4 0 0.6-0.2l2.4-2.4q0.2-0.2 0.2-0.6 0-0.4-0.2-0.6-0.3-0.3-0.6-0.3z"/></g></svg>