<svg version="1.2" xmlns="http://www.w3.org/2000/svg" viewBox="0 0 24 24" width="24" height="24"><defs><clipPath clipPathUnits="userSpaceOnUse" id="cp1"><path d="m-195-741h430v2044h-430z"/></clipPath></defs><style>.a{fill:none}.b{fill:#31c48d}</style><g clip-path="url(#cp1)"><path fill-rule="evenodd" class="a" d="m24 0v24h-24v-24zm-11.4 23.3h-0.1-0.1q0 0 0 0v0.4l0.1 0.1 0.1-0.1v-0.4q0 0 0 0zm0.3-0.2h-0.1l-0.1 0.1h-0.1v0.1l0.1 0.4 0.2 0.1q0 0 0 0v-0.6q0-0.1 0-0.1zm-0.8 0q0 0 0 0 0 0 0 0.1v0.6q0 0 0 0l0.2-0.1v-0.4-0.1z"/><path fill-rule="evenodd" class="b" d="m15.7 3.3c0.3-0.4 0.8-0.6 1.3-0.6 0.5 0 1 0.1 1.4 0.5l0.1 0.1 0.7 0.7c0.4 0.3 0.6 0.8 0.6 1.3 0 0.5-0.1 1-0.5 1.4l-0.1 0.1-0.7 0.7q-0.1 0.1-0.2 0.2 0.1 0.5 0 1-0.1 0.4-0.4 0.8l-0.1 0.1-1 1q1.1 1 1.6 2.2 0.6 1.3 0.6 2.7c0 1.6-0.6 3.1-1.6 4.3l-0.2 0.2h2.8q0.4 0 0.7 0.3 0.3 0.2 0.3 0.6 0 0.4-0.2 0.7-0.3 0.3-0.7 0.4h-0.1-16q-0.4 0-0.7-0.3-0.3-0.2-0.3-0.6 0-0.4 0.2-0.7 0.3-0.3 0.7-0.4h0.1 8.5c0.9 0 1.8-0.3 2.5-0.8 0.8-0.5 1.4-1.2 1.7-2 0.3-0.9 0.4-1.8 0.2-2.7-0.2-0.9-0.7-1.7-1.3-2.3l-0.2-0.1-3.3 3.2c-0.3 0.4-0.8 0.6-1.3 0.6-0.5 0-1-0.2-1.4-0.5l-0.1-0.1-2.1-2.1c-0.4-0.4-0.6-0.8-0.6-1.3 0-0.5 0.2-1 0.5-1.4l0.1-0.1 5.7-5.7q0.3-0.4 0.9-0.5 0.5-0.2 1 0l0.1-0.1 0.1-0.1zm-9.2 10.6l2.1 2.1q0.1 0.2 0.2 0.3 0.1 0.2 0.1 0.4 0 0.2-0.1 0.4 0 0.2-0.2 0.3-0.1 0.2-0.3 0.3-0.2 0-0.4 0-0.2 0-0.4 0-0.2-0.1-0.3-0.3l-2.1-2.1q-0.2-0.1-0.2-0.3-0.1-0.2-0.1-0.4 0-0.2 0.1-0.4 0-0.2 0.2-0.3 0.1-0.1 0.3-0.2 0.2-0.1 0.4-0.1 0.2 0 0.4 0.1 0.1 0.1 0.3 0.2zm10.6-9.2l-0.7 0.7 0.7 0.7 0.7-0.7z"/></g></svg>