<svg version="1.2" xmlns="http://www.w3.org/2000/svg" viewBox="0 0 24 24" width="24" height="24"><defs><clipPath clipPathUnits="userSpaceOnUse" id="cp1"><path d="m-35-1980h430v2044h-430z"/></clipPath></defs><style>.a{fill:#31c48d}</style><g clip-path="url(#cp1)"><path fill-rule="evenodd" class="a" d="m4.9 4l2.3-1.5c2.3-1.4 3.5-2.2 4.8-2.2 1.3 0 2.5 0.8 4.8 2.2l2.3 1.5c2.2 1.3 3.4 2 4 3.1 0.6 1.1 0.6 2.5 0.6 5.1v1.8c0 4.6 0 6.8-1.4 8.3-1.4 1.4-3.6 1.4-8 1.4h-4.6c-4.4 0-6.6 0-8-1.4-1.4-1.5-1.4-3.7-1.4-8.3v-1.8c0-2.6 0-4 0.6-5.1 0.6-1.1 1.8-1.8 4-3.1zm4.1 12q-0.1-0.1-0.3-0.2-0.2 0-0.3 0-0.2 0-0.4 0.1-0.1 0.1-0.2 0.2-0.1 0.2-0.2 0.3 0 0.2 0 0.4 0 0.2 0.1 0.3 0.1 0.2 0.3 0.3c1.1 0.8 2.5 1.3 4 1.3 1.4 0 2.9-0.5 4-1.3q0.2-0.1 0.3-0.3 0.1-0.1 0.1-0.3 0-0.2 0-0.4-0.1-0.1-0.2-0.3-0.1-0.1-0.2-0.2-0.2-0.1-0.4-0.1-0.1 0-0.3 0-0.2 0.1-0.3 0.2c-0.9 0.6-1.9 1-3 1-1.1 0-2.1-0.4-3-1z"/></g></svg>