<svg version="1.2" xmlns="http://www.w3.org/2000/svg" viewBox="0 0 14 18" width="14" height="18"><defs><clipPath clipPathUnits="userSpaceOnUse" id="cp1"><path d="m-66-828h430v2044h-430z"/></clipPath></defs><style>.a{fill:#31c48d}</style><g clip-path="url(#cp1)"><path fill-rule="evenodd" class="a" d="m2.4 13.2q0.3-0.1 0.6 0.1 0.4 0.1 0.5 0.5 0.1 0.3-0.1 0.7-0.2 0.3-0.5 0.4-0.7 0.2-1 0.4 0.3 0.2 1 0.4c1 0.3 2.5 0.5 4.1 0.5 1.6 0 3.1-0.2 4.1-0.5q0.7-0.2 1-0.4-0.3-0.2-1-0.4-0.3-0.1-0.5-0.4-0.1-0.4-0.1-0.7 0.2-0.4 0.5-0.5 0.3-0.2 0.6-0.1c0.6 0.2 1.1 0.4 1.6 0.7 0.3 0.2 0.8 0.7 0.8 1.4 0 0.7-0.5 1.2-0.9 1.4-0.4 0.3-0.9 0.6-1.5 0.7-1.2 0.4-2.9 0.6-4.6 0.6-1.8 0-3.4-0.2-4.6-0.6-0.6-0.1-1.1-0.4-1.5-0.7-0.4-0.2-0.9-0.7-0.9-1.4 0-0.7 0.5-1.2 0.8-1.4 0.5-0.3 1-0.5 1.6-0.7zm4.6-13.2c1.7 0 3.4 0.7 4.6 2 1.3 1.2 2 3 2 4.7 0 2.4-1.3 4.2-2.5 5.6q-0.8 0.8-1.7 1.4c-0.5 0.4-1.7 1.2-1.7 1.2q-0.3 0.2-0.7 0.2-0.4 0-0.7-0.2-0.9-0.5-1.7-1.2-0.9-0.6-1.7-1.4c-1.2-1.4-2.5-3.2-2.5-5.6 0-1.7 0.7-3.5 2-4.7 1.2-1.3 2.9-2 4.6-2zm0 4.9q-0.8 0-1.2 0.6c-0.4 0.3-0.6 0.8-0.6 1.2 0 0.5 0.2 1 0.6 1.3 0.3 0.4 0.7 0.5 1.2 0.5 0.5 0 0.9-0.1 1.2-0.5 0.4-0.3 0.5-0.8 0.5-1.3 0-0.4-0.1-0.9-0.5-1.2q-0.5-0.6-1.2-0.6z"/></g></svg>