<svg version="1.2" xmlns="http://www.w3.org/2000/svg" viewBox="0 0 20 20" width="20" height="20"><defs><clipPath clipPathUnits="userSpaceOnUse" id="cp1"><path d="m-63-777h430v2044h-430z"/></clipPath></defs><style>.a{fill:#31c48d}</style><g clip-path="url(#cp1)"><path fill-rule="evenodd" class="a" d="m19.7 9.6c-0.4 0.4-1 0.5-1.4 0.1l-0.3-0.3v9.6c0 0.6-0.4 1-1 1h-14c-0.6 0-1-0.4-1-1v-9.6l-0.3 0.4c-0.4 0.4-1 0.3-1.4-0.1-0.4-0.4-0.3-1 0.1-1.4l9-8c0.4-0.3 0.9-0.3 1.3 0l9 8c0.4 0.3 0.4 1 0 1.3zm-6.7 2.4c0-0.6-0.4-1-1-1h-1v-1c0-0.6-0.4-1-1-1-0.6 0-1 0.4-1 1v1h-1c-0.6 0-1 0.4-1 1 0 0.6 0.4 1 1 1h1v1c0 0.6 0.4 1 1 1 0.6 0 1-0.4 1-1v-1h1c0.6 0 1-0.4 1-1z"/></g></svg>