<svg version="1.2" xmlns="http://www.w3.org/2000/svg" viewBox="0 0 22 23" width="22" height="23"><defs><clipPath clipPathUnits="userSpaceOnUse" id="cp1"><path d="m-139-1981h430v2044h-430z"/></clipPath></defs><style>.a{fill:#cdcdcd}</style><g clip-path="url(#cp1)"><path fill-rule="evenodd" class="a" d="m15.3 0.8c0.4-0.4 1-0.6 1.5-0.7 0.6 0 1.2 0.2 1.6 0.6l0.2 0.1 0.8 0.9c0.4 0.4 0.7 0.9 0.7 1.5 0 0.6-0.2 1.2-0.5 1.6l-0.2 0.2-0.8 0.8q-0.1 0.1-0.2 0.2 0.1 0.5 0 1.1-0.1 0.6-0.5 1l-0.1 0.2-1.2 1.1c0.8 0.7 1.5 1.6 1.9 2.6 0.4 0.9 0.7 2 0.7 3.1 0 1.9-0.7 3.7-1.9 5l-0.2 0.2h3.2c0.3 0 0.6 0.1 0.8 0.4q0.4 0.3 0.4 0.7 0 0.5-0.3 0.8c-0.2 0.3-0.4 0.4-0.7 0.5h-18.8q-0.5 0-0.8-0.4-0.4-0.3-0.4-0.7c0-0.3 0.1-0.6 0.3-0.8q0.3-0.4 0.7-0.5h10.1c1 0 2.1-0.3 2.9-0.9 0.9-0.6 1.6-1.4 2-2.4 0.4-1 0.4-2 0.2-3.1-0.2-1-0.8-1.9-1.5-2.7l-0.2-0.1-3.8 3.8c-0.4 0.4-1 0.6-1.6 0.6-0.6 0.1-1.1-0.1-1.6-0.5l-2.6-2.6c-0.4-0.4-0.7-1-0.7-1.6 0-0.6 0.2-1.1 0.6-1.6l0.1-0.1 6.6-6.6q0.4-0.5 1.1-0.6 0.6-0.2 1.2 0l0.1-0.1 0.1-0.1zm-10.8 12.3l2.5 2.5q0.2 0.2 0.3 0.4 0.1 0.2 0.1 0.4 0 0.3-0.1 0.5-0.1 0.2-0.3 0.4-0.1 0.1-0.3 0.2-0.3 0.1-0.5 0.1-0.2 0-0.4-0.1-0.3-0.1-0.4-0.2l-2.5-2.5q-0.2-0.2-0.3-0.4 0-0.2 0-0.4 0-0.3 0-0.5 0.1-0.2 0.3-0.4 0.2-0.1 0.4-0.2 0.2-0.1 0.4-0.1 0.3 0 0.5 0.1 0.2 0.1 0.3 0.2zm12.4-10.7l-0.8 0.8 0.8 0.9 0.8-0.9z"/></g></svg>