<svg width="80" height="30" viewBox="0 0 80 30" fill="none" xmlns="http://www.w3.org/2000/svg">
<rect width="80" height="30" rx="15" fill="#F1F1F1"/>
<path d="M13.964 14.974C14.3187 15.03 14.6407 15.1747 14.93 15.408C15.2287 15.6413 15.462 15.9307 15.63 16.276C15.8073 16.6213 15.896 16.99 15.896 17.382C15.896 17.8767 15.77 18.3247 15.518 18.726C15.266 19.118 14.8973 19.4307 14.412 19.664C13.936 19.888 13.3713 20 12.718 20H9.078V10.242H12.578C13.2407 10.242 13.8053 10.354 14.272 10.578C14.7387 10.7927 15.0887 11.0867 15.322 11.46C15.5553 11.8333 15.672 12.2533 15.672 12.72C15.672 13.2987 15.5133 13.7793 15.196 14.162C14.888 14.5353 14.4773 14.806 13.964 14.974ZM10.352 14.456H12.494C13.0913 14.456 13.5533 14.316 13.88 14.036C14.2067 13.756 14.37 13.3687 14.37 12.874C14.37 12.3793 14.2067 11.992 13.88 11.712C13.5533 11.432 13.082 11.292 12.466 11.292H10.352V14.456ZM12.606 18.95C13.2407 18.95 13.7353 18.8007 14.09 18.502C14.4447 18.2033 14.622 17.788 14.622 17.256C14.622 16.7147 14.4353 16.29 14.062 15.982C13.6887 15.6647 13.1893 15.506 12.564 15.506H10.352V18.95H12.606ZM18.9379 9.64V20H17.6639V9.64H18.9379ZM24.4553 20.126C23.7366 20.126 23.0833 19.9627 22.4953 19.636C21.9166 19.3093 21.4593 18.8473 21.1233 18.25C20.7966 17.6433 20.6333 16.9433 20.6333 16.15C20.6333 15.366 20.8013 14.6753 21.1373 14.078C21.4826 13.4713 21.9493 13.0093 22.5373 12.692C23.1253 12.3653 23.7833 12.202 24.5113 12.202C25.2393 12.202 25.8973 12.3653 26.4853 12.692C27.0733 13.0093 27.5353 13.4667 27.8713 14.064C28.2166 14.6613 28.3893 15.3567 28.3893 16.15C28.3893 16.9433 28.2119 17.6433 27.8573 18.25C27.5119 18.8473 27.0406 19.3093 26.4433 19.636C25.8459 19.9627 25.1833 20.126 24.4553 20.126ZM24.4553 19.006C24.9126 19.006 25.3419 18.8987 25.7433 18.684C26.1446 18.4693 26.4666 18.1473 26.7093 17.718C26.9613 17.2887 27.0873 16.766 27.0873 16.15C27.0873 15.534 26.9659 15.0113 26.7233 14.582C26.4806 14.1527 26.1633 13.8353 25.7713 13.63C25.3793 13.4153 24.9546 13.308 24.4973 13.308C24.0306 13.308 23.6013 13.4153 23.2093 13.63C22.8266 13.8353 22.5186 14.1527 22.2853 14.582C22.0519 15.0113 21.9353 15.534 21.9353 16.15C21.9353 16.7753 22.0473 17.3027 22.2713 17.732C22.5046 18.1613 22.8126 18.4833 23.1953 18.698C23.5779 18.9033 23.9979 19.006 24.4553 19.006ZM33.4103 20.126C32.6917 20.126 32.0383 19.9627 31.4503 19.636C30.8717 19.3093 30.4143 18.8473 30.0783 18.25C29.7517 17.6433 29.5883 16.9433 29.5883 16.15C29.5883 15.366 29.7563 14.6753 30.0923 14.078C30.4377 13.4713 30.9043 13.0093 31.4923 12.692C32.0803 12.3653 32.7383 12.202 33.4663 12.202C34.1943 12.202 34.8523 12.3653 35.4403 12.692C36.0283 13.0093 36.4903 13.4667 36.8263 14.064C37.1717 14.6613 37.3443 15.3567 37.3443 16.15C37.3443 16.9433 37.167 17.6433 36.8123 18.25C36.467 18.8473 35.9957 19.3093 35.3983 19.636C34.801 19.9627 34.1383 20.126 33.4103 20.126ZM33.4103 19.006C33.8677 19.006 34.297 18.8987 34.6983 18.684C35.0997 18.4693 35.4217 18.1473 35.6643 17.718C35.9163 17.2887 36.0423 16.766 36.0423 16.15C36.0423 15.534 35.921 15.0113 35.6783 14.582C35.4357 14.1527 35.1183 13.8353 34.7263 13.63C34.3343 13.4153 33.9097 13.308 33.4523 13.308C32.9857 13.308 32.5563 13.4153 32.1643 13.63C31.7817 13.8353 31.4737 14.1527 31.2403 14.582C31.007 15.0113 30.8903 15.534 30.8903 16.15C30.8903 16.7753 31.0023 17.3027 31.2263 17.732C31.4597 18.1613 31.7677 18.4833 32.1503 18.698C32.533 18.9033 32.953 19.006 33.4103 19.006ZM38.5434 16.136C38.5434 15.352 38.7021 14.666 39.0194 14.078C39.3367 13.4807 39.7707 13.0187 40.3214 12.692C40.8814 12.3653 41.5067 12.202 42.1974 12.202C42.7947 12.202 43.3501 12.342 43.8634 12.622C44.3767 12.8927 44.7687 13.252 45.0394 13.7V9.64H46.3274V20H45.0394V18.558C44.7874 19.0153 44.4141 19.3933 43.9194 19.692C43.4247 19.9813 42.8461 20.126 42.1834 20.126C41.5021 20.126 40.8814 19.958 40.3214 19.622C39.7707 19.286 39.3367 18.8147 39.0194 18.208C38.7021 17.6013 38.5434 16.9107 38.5434 16.136ZM45.0394 16.15C45.0394 15.5713 44.9227 15.0673 44.6894 14.638C44.4561 14.2087 44.1387 13.882 43.7374 13.658C43.3454 13.4247 42.9114 13.308 42.4354 13.308C41.9594 13.308 41.5254 13.42 41.1334 13.644C40.7414 13.868 40.4287 14.1947 40.1954 14.624C39.9621 15.0533 39.8454 15.5573 39.8454 16.136C39.8454 16.724 39.9621 17.2373 40.1954 17.676C40.4287 18.1053 40.7414 18.4367 41.1334 18.67C41.5254 18.894 41.9594 19.006 42.4354 19.006C42.9114 19.006 43.3454 18.894 43.7374 18.67C44.1387 18.4367 44.4561 18.1053 44.6894 17.676C44.9227 17.2373 45.0394 16.7287 45.0394 16.15Z" fill="#868796"/>
<path d="M64 8C60.1 8 57 11.1 57 15C57 18.9 60.1 22 64 22C67.9 22 71 18.9 71 15C71 11.1 67.9 8 64 8Z" fill="#868796"/>
<path d="M66.7 18.5L64 15.8L61.3 18.5L60.5 17.7L63.2 15L60.5 12.3L61.3 11.5L64 14.2L66.7 11.5L67.5 12.3L64.8 15L67.5 17.7L66.7 18.5Z" fill="white"/>
</svg>
