<svg width="73" height="30" viewBox="0 0 73 30" fill="none" xmlns="http://www.w3.org/2000/svg">
<rect width="73" height="30" rx="15" fill="#F1F1F1"/>
<path d="M10.352 18.964H13.768V20H9.078V10.242H10.352V18.964ZM14.645 16.136C14.645 15.352 14.8036 14.666 15.121 14.078C15.4383 13.4807 15.8723 13.0187 16.423 12.692C16.983 12.3653 17.6036 12.202 18.285 12.202C18.957 12.202 19.5403 12.3467 20.035 12.636C20.5296 12.9253 20.8983 13.2893 21.141 13.728V12.328H22.429V20H21.141V18.572C20.889 19.02 20.511 19.3933 20.007 19.692C19.5123 19.9813 18.9336 20.126 18.271 20.126C17.5896 20.126 16.9736 19.958 16.423 19.622C15.8723 19.286 15.4383 18.8147 15.121 18.208C14.8036 17.6013 14.645 16.9107 14.645 16.136ZM21.141 16.15C21.141 15.5713 21.0243 15.0673 20.791 14.638C20.5576 14.2087 20.2403 13.882 19.839 13.658C19.447 13.4247 19.013 13.308 18.537 13.308C18.061 13.308 17.627 13.42 17.235 13.644C16.843 13.868 16.5303 14.1947 16.297 14.624C16.0636 15.0533 15.947 15.5573 15.947 16.136C15.947 16.724 16.0636 17.2373 16.297 17.676C16.5303 18.1053 16.843 18.4367 17.235 18.67C17.627 18.894 18.061 19.006 18.537 19.006C19.013 19.006 19.447 18.894 19.839 18.67C20.2403 18.4367 20.5576 18.1053 20.791 17.676C21.0243 17.2373 21.141 16.7287 21.141 16.15ZM25.8559 13.756C26.1172 13.2987 26.4999 12.9253 27.0039 12.636C27.5079 12.3467 28.0819 12.202 28.7259 12.202C29.4166 12.202 30.0372 12.3653 30.5879 12.692C31.1386 13.0187 31.5726 13.4807 31.8899 14.078C32.2072 14.666 32.3659 15.352 32.3659 16.136C32.3659 16.9107 32.2072 17.6013 31.8899 18.208C31.5726 18.8147 31.1339 19.286 30.5739 19.622C30.0232 19.958 29.4072 20.126 28.7259 20.126C28.0632 20.126 27.4799 19.9813 26.9759 19.692C26.4812 19.4027 26.1079 19.034 25.8559 18.586V20H24.5819V9.64H25.8559V13.756ZM31.0639 16.136C31.0639 15.5573 30.9472 15.0533 30.7139 14.624C30.4806 14.1947 30.1632 13.868 29.7619 13.644C29.3699 13.42 28.9359 13.308 28.4599 13.308C27.9932 13.308 27.5592 13.4247 27.1579 13.658C26.7659 13.882 26.4486 14.2133 26.2059 14.652C25.9726 15.0813 25.8559 15.5807 25.8559 16.15C25.8559 16.7287 25.9726 17.2373 26.2059 17.676C26.4486 18.1053 26.7659 18.4367 27.1579 18.67C27.5592 18.894 27.9932 19.006 28.4599 19.006C28.9359 19.006 29.3699 18.894 29.7619 18.67C30.1632 18.4367 30.4806 18.1053 30.7139 17.676C30.9472 17.2373 31.0639 16.724 31.0639 16.136ZM36.7588 20.126C36.1708 20.126 35.6435 20.028 35.1768 19.832C34.7102 19.6267 34.3415 19.3467 34.0708 18.992C33.8002 18.628 33.6508 18.2127 33.6228 17.746H34.9388C34.9762 18.1287 35.1535 18.4413 35.4708 18.684C35.7975 18.9267 36.2222 19.048 36.7448 19.048C37.2302 19.048 37.6128 18.9407 37.8928 18.726C38.1728 18.5113 38.3128 18.2407 38.3128 17.914C38.3128 17.578 38.1635 17.3307 37.8648 17.172C37.5662 17.004 37.1042 16.8407 36.4788 16.682C35.9095 16.5327 35.4428 16.3833 35.0788 16.234C34.7242 16.0753 34.4162 15.8467 34.1548 15.548C33.9028 15.24 33.7768 14.8387 33.7768 14.344C33.7768 13.952 33.8935 13.5927 34.1268 13.266C34.3602 12.9393 34.6915 12.6827 35.1208 12.496C35.5502 12.3 36.0402 12.202 36.5908 12.202C37.4402 12.202 38.1262 12.4167 38.6488 12.846C39.1715 13.2753 39.4515 13.8633 39.4888 14.61H38.2148C38.1868 14.2087 38.0235 13.8867 37.7248 13.644C37.4355 13.4013 37.0435 13.28 36.5488 13.28C36.0915 13.28 35.7275 13.378 35.4568 13.574C35.1862 13.77 35.0508 14.0267 35.0508 14.344C35.0508 14.596 35.1302 14.806 35.2888 14.974C35.4568 15.1327 35.6622 15.2633 35.9048 15.366C36.1568 15.4593 36.5022 15.5667 36.9408 15.688C37.4915 15.8373 37.9395 15.9867 38.2848 16.136C38.6302 16.276 38.9242 16.4907 39.1668 16.78C39.4188 17.0693 39.5495 17.4473 39.5588 17.914C39.5588 18.334 39.4422 18.712 39.2088 19.048C38.9755 19.384 38.6442 19.65 38.2148 19.846C37.7948 20.0327 37.3095 20.126 36.7588 20.126Z" fill="#868796"/>
<path d="M57 8C53.1 8 50 11.1 50 15C50 18.9 53.1 22 57 22C60.9 22 64 18.9 64 15C64 11.1 60.9 8 57 8Z" fill="#868796"/>
<path d="M59.7 18.5L57 15.8L54.3 18.5L53.5 17.7L56.2 15L53.5 12.3L54.3 11.5L57 14.2L59.7 11.5L60.5 12.3L57.8 15L60.5 17.7L59.7 18.5Z" fill="white"/>
</svg>
