<svg width="24" height="24" viewBox="0 0 24 24" fill="none" xmlns="http://www.w3.org/2000/svg">
<g clip-path="url(#clip0_2204_1592)">
<path d="M14.5984 2.71777C15.0585 2.5463 15.5751 2.73432 15.8174 3.16145L17.2217 5.63734C17.3256 5.82038 17.4845 5.966 17.6759 6.05347L20.2647 7.2367C20.7114 7.44083 20.9437 7.93904 20.813 8.41239L20.0553 11.1561C19.9993 11.359 20.0087 11.5743 20.0821 11.7715L21.0761 14.4388C21.2476 14.8989 21.0595 15.4155 20.6324 15.6578L18.1565 17.0621C17.9735 17.166 17.8279 17.3249 17.7404 17.5163L16.5572 20.1051C16.353 20.5518 15.8548 20.7841 15.3815 20.6534L12.6377 19.8957C12.4349 19.8397 12.2195 19.8491 12.0223 19.9225L9.35508 20.9165C8.89492 21.088 8.37835 20.8999 8.13607 20.4728L6.73171 17.9969C6.62789 17.8139 6.46897 17.6683 6.27758 17.5808L3.68872 16.3976C3.2421 16.1934 3.00977 15.6952 3.14049 15.2219L3.89817 12.4781C3.95419 12.2753 3.94478 12.0599 3.8713 11.8627L2.87737 9.19548C2.7059 8.73532 2.89391 8.21875 3.32105 7.97648L5.79693 6.57212C5.97997 6.4683 6.12559 6.30938 6.21307 6.11799L7.3963 3.52913C7.60043 3.0825 8.09864 2.85018 8.57199 2.98089L11.3157 3.73857C11.5186 3.79459 11.7339 3.78519 11.9311 3.71171L14.5984 2.71777Z" fill="#31C48D"/>
<path d="M14.3069 10.1594C14.4155 10.056 14.56 9.99888 14.7099 10C14.8599 10.0012 15.0035 10.0605 15.1105 10.1655C15.2175 10.2705 15.2795 10.413 15.2835 10.5628C15.2875 10.7127 15.233 10.8583 15.1317 10.9688L12.0561 14.8152C12.0032 14.8722 11.9394 14.9179 11.8684 14.9496C11.7975 14.9814 11.7209 14.9985 11.6431 14.9999C11.5654 15.0013 11.4882 14.9871 11.4161 14.958C11.3441 14.9289 11.2786 14.8856 11.2236 14.8306L9.184 12.791C9.1272 12.7381 9.08165 12.6743 9.05005 12.6034C9.01845 12.5324 9.00146 12.4559 9.00009 12.3783C8.99872 12.3006 9.013 12.2235 9.04208 12.1515C9.07115 12.0796 9.11443 12.0142 9.16933 11.9593C9.22423 11.9044 9.28962 11.8611 9.36161 11.832C9.43359 11.8029 9.5107 11.7887 9.58832 11.79C9.66595 11.7914 9.7425 11.8084 9.81342 11.84C9.88433 11.8716 9.94816 11.9171 10.0011 11.9739L11.6152 13.5873L14.2923 10.1764L14.3069 10.1594Z" fill="white"/>
</g>
<defs>
<clipPath id="clip0_2204_1592">
<rect width="24" height="24" fill="white"/>
</clipPath>
</defs>
</svg>
