<svg version="1.2" xmlns="http://www.w3.org/2000/svg" viewBox="0 0 21 20" width="21" height="20"><defs><clipPath clipPathUnits="userSpaceOnUse" id="cp1"><path d="m-63-743h430v2044h-430z"/></clipPath></defs><style>.a{fill:#31c48d}</style><g clip-path="url(#cp1)"><path class="a" d="m11.2 0.9q-0.1-0.2-0.3-0.4-0.2-0.1-0.5-0.1-0.2 0-0.4 0.1-0.2 0.2-0.3 0.4l-2.6 5.5-5.9 0.7q-0.3 0-0.5 0.2-0.2 0.1-0.3 0.4 0 0.2 0 0.5 0.1 0.2 0.3 0.4l4.4 4.1-1.2 5.9q0 0.2 0.1 0.4 0.1 0.3 0.3 0.4 0.2 0.2 0.4 0.2 0.3 0 0.5-0.1l5.2-2.9 5.3 2.9q0.2 0.1 0.5 0.1 0.2 0 0.4-0.2 0.2-0.1 0.3-0.4 0.1-0.2 0.1-0.4l-1.2-5.9 4.4-4.1q0.2-0.2 0.3-0.4 0-0.3 0-0.5-0.1-0.3-0.3-0.4-0.2-0.2-0.5-0.2l-5.9-0.7z"/></g></svg>