<svg width="7" height="5" viewBox="0 0 7 5" fill="none" xmlns="http://www.w3.org/2000/svg">
<path d="M5.30694 0.15941C5.41553 0.0560331 5.56003 -0.0011178 5.70995 1.65693e-05C5.85987 0.00115094 6.00349 0.0604821 6.11049 0.16549C6.2175 0.270498 6.27953 0.41297 6.2835 0.562843C6.28746 0.712715 6.23304 0.858266 6.13173 0.968782L3.05612 4.81523C3.00323 4.87219 2.9394 4.9179 2.86845 4.94963C2.79749 4.98137 2.72086 4.99846 2.64315 4.9999C2.56543 5.00134 2.48822 4.98709 2.41614 4.95801C2.34406 4.92893 2.27858 4.88561 2.22362 4.83064L0.184004 2.79103C0.127204 2.7381 0.081646 2.67427 0.0500481 2.60336C0.0184502 2.53244 0.00145957 2.45589 8.99712e-05 2.37826C-0.00127963 2.30064 0.0129999 2.22353 0.0420764 2.15155C0.0711529 2.07956 0.114431 2.01417 0.169329 1.95927C0.224226 1.90437 0.289619 1.86109 0.361605 1.83202C0.433591 1.80294 0.510697 1.78866 0.588322 1.79003C0.665947 1.7914 0.742501 1.80839 0.813417 1.83999C0.884332 1.87159 0.948157 1.91715 1.00108 1.97395L2.6152 3.58729L5.2923 0.176369L5.30694 0.15941Z" fill="white"/>
</svg>
