<svg version="1.2" xmlns="http://www.w3.org/2000/svg" viewBox="0 0 25 24" width="25" height="24"><defs><clipPath clipPathUnits="userSpaceOnUse" id="cp1"><path d="m-369-1980h430v2044h-430z"/></clipPath></defs><style>.a{fill:#cdcdcd}</style><g clip-path="url(#cp1)"><path fill-rule="evenodd" class="a" d="m24.2 12c0 6.4-5.3 11.7-11.7 11.7-6.4 0-11.7-5.3-11.7-11.7 0-6.4 5.3-11.7 11.7-11.7 6.4 0 11.7 5.3 11.7 11.7zm-14.6 0c0.8 0.7 1.8 1.2 2.9 1.2 1.1 0 2.1-0.5 2.9-1.2 0.8-0.8 1.2-1.8 1.2-2.9q0-0.8-0.3-1.6-0.3-0.7-0.9-1.3-0.6-0.6-1.3-0.9-0.8-0.3-1.6-0.3-0.8 0-1.6 0.3-0.7 0.3-1.3 0.9-0.6 0.6-0.9 1.3-0.3 0.8-0.3 1.6c0 1.1 0.4 2.1 1.2 2.9zm2.9 3.5c-2.8 0-5.4 1-7.3 2.3 0.9 1.1 2 2 3.2 2.6 1.3 0.6 2.7 0.9 4.1 0.9 1.4 0 2.8-0.3 4.1-0.9 1.2-0.6 2.3-1.5 3.2-2.6-1.9-1.3-4.5-2.3-7.3-2.3z"/></g></svg>