<svg version="1.2" xmlns="http://www.w3.org/2000/svg" viewBox="0 0 19 20" width="19" height="20"><defs><clipPath clipPathUnits="userSpaceOnUse" id="cp1"><path d="m-100-705h430v2044h-430z"/></clipPath></defs><style>.a{fill:#31c48d}.b{fill:#fff}</style><g clip-path="url(#cp1)"><path class="a" d="m12.4 0.4l3.2 4.9 3.4 4.9-3.7 4.5-3.6 4.7-5.5-2.1-5.5-1.9 0.3-5.9 0.1-5.8 5.7-1.6z"/><path class="b" d="m11.3 8.2q0.2-0.2 0.4-0.2 0.2 0 0.4 0.2 0.2 0.1 0.2 0.4 0 0.2-0.2 0.4l-3 3.8q-0.1 0.1-0.2 0.1-0.1 0.1-0.3 0.1-0.1 0-0.2 0-0.1-0.1-0.2-0.2l-2-2q-0.1-0.1-0.2-0.2 0-0.1 0-0.2 0-0.1 0-0.2 0.1-0.2 0.2-0.2 0.1-0.1 0.2-0.2 0.1 0 0.2 0 0.1 0 0.2 0 0.1 0.1 0.2 0.2l1.6 1.6 2.7-3.4z"/></g></svg>