<svg width="44" height="44" viewBox="0 0 44 44" fill="none" xmlns="http://www.w3.org/2000/svg">
<path d="M5.50018 18.3332C5.50018 11.4197 5.50018 7.962 7.64885 5.81517C9.79568 3.6665 13.2534 3.6665 20.1669 3.6665H23.8335C30.747 3.6665 34.2047 3.6665 36.3515 5.81517C38.5002 7.962 38.5002 11.4197 38.5002 18.3332V25.6665C38.5002 32.58 38.5002 36.0377 36.3515 38.1845C34.2047 40.3332 30.747 40.3332 23.8335 40.3332H20.1669C13.2534 40.3332 9.79568 40.3332 7.64885 38.1845C5.50018 36.0377 5.50018 32.58 5.50018 25.6665V18.3332Z" fill="#31C48D"/>
<path d="M12.8337 22.3422H15.9222C16.0522 22.3407 16.1795 22.3046 16.2911 22.2377C16.4026 22.1708 16.4943 22.0755 16.5568 21.9614L19.0953 16.8845C19.1578 16.7581 19.2576 16.6539 19.3811 16.5858C19.5046 16.5177 19.646 16.4891 19.7863 16.5037C19.926 16.5132 20.0594 16.5657 20.168 16.6541C20.2766 16.7425 20.3551 16.8624 20.3927 16.9973L23.5376 27.4614C23.5789 27.6034 23.6637 27.7287 23.7801 27.8199C23.8965 27.911 24.0386 27.9632 24.1863 27.9691C24.3247 27.9645 24.4587 27.9193 24.5716 27.839C24.6844 27.7588 24.7711 27.6471 24.8209 27.5178L26.753 22.7935C26.8062 22.661 26.8976 22.5473 27.0157 22.4669C27.1337 22.3865 27.273 22.3431 27.4158 22.3422H31.1671" stroke="white" stroke-width="1.33333" stroke-linecap="round" stroke-linejoin="round"/>
</svg>
