<svg version="1.2" xmlns="http://www.w3.org/2000/svg" viewBox="0 0 16 16" width="16" height="16"><defs><clipPath clipPathUnits="userSpaceOnUse" id="cp1"><path d="m-164-533h430v2044h-430z"/></clipPath></defs><style>.a{fill:#31c48d}</style><g clip-path="url(#cp1)"><path fill-rule="evenodd" class="a" d="m8 0c4.4 0 8 3.6 8 8 0 4.4-3.6 8-8 8-1.4 0-2.8-0.4-4-1.1l-4 1.1 1.1-4c-0.7-1.2-1.1-2.6-1.1-4 0-4.4 3.6-8 8-8zm-3.2 4.3q-0.1 0.1-0.2 0.2-0.2 0.1-0.2 0.3c-0.3 0.3-0.5 0.8-0.5 1.3q0 0.6 0.3 1.1c0.3 0.7 0.8 1.5 1.6 2.2q0.2 0.3 0.5 0.5c0.9 0.8 1.9 1.4 3.1 1.7 0.1 0 0.7 0 0.9 0q0.3 0 0.6-0.2 0.2 0 0.3-0.1 0 0 0.1-0.1c0.1-0.1 0.2-0.2 0.3-0.2q0.1-0.2 0.2-0.3c0-0.1 0.1-0.4 0.1-0.6q0-0.2 0-0.3c0-0.1-0.1-0.1-0.1-0.2l-0.5-0.2c0 0-0.7-0.3-1.1-0.5q-0.1 0-0.2 0 0 0-0.1 0-0.1 0-0.2 0.1c0 0 0 0-0.6 0.7q-0.1 0.1-0.1 0.1-0.1 0-0.2 0-0.1 0-0.1 0c-0.1-0.1-0.2-0.1-0.3-0.1q-0.6-0.3-1.2-0.8-0.2-0.1-0.3-0.3-0.5-0.4-0.8-1l-0.1-0.1q0-0.1 0-0.1c-0.1-0.2 0-0.3 0-0.3 0 0 0.2-0.2 0.3-0.3q0.1-0.2 0.2-0.3 0.1-0.2 0.1-0.4-0.4-0.8-0.7-1.6c-0.1-0.2-0.2-0.2-0.3-0.2q-0.1-0.1-0.2-0.1-0.1 0-0.3 0-0.1 0.1-0.3 0.1z"/></g></svg>